<svg  xmlns="http://www.w3.org/2000/svg" viewBox="0 0 433.81 433.81"><defs><style>.cls-1{fill:#253d7f;}.cls-2{fill:#00a3e3;}</style></defs><title>khung</title><g id="Layer_2" data-name="Layer 2"><g id="Layer_1-2" data-name="Layer 1"><path class="cls-1" d="M245.9,424.36H419.63l8-12.26V371.33l-7.33-11.22v-45.5l7.33-11.23v-96.1l-7.33-11.22V159.24L427.64,148V21.72l-8-12.27H245.9l-7.33,11.23H161.83L154.5,9.45H14.18l-8,12.27V97.5l7.33,11.23V324.41L6.17,335.64V412.1l8,12.26H154.5l7.33-11.22h76.74Zm-92.36-3.54H15.14L8.49,410.63V337.11l7.33-11.23V107.26L8.49,96V23.18L15.14,13h138.4l7.33,11.22h78.66L246.86,13h29.93l7.85,12h77.44l7.85-12h48.74l6.65,10.18V146.55L418,157.77v39.75l7.33,11.23v93.16L418,313.14v48.44l7.33,11.22v37.83l-6.65,10.19H370l-7.84-12H284.72l-7.84,12h-30l-7.33-11.23H160.87Z"/><path class="cls-2" d="M433.81,416V203.37l-7.33-11.23v-29l7.33-11.22V17.8L422.19,0H243.34L236,11.23H164.39L157.06,0H11.62L0,17.8V416l11.63,17.8H157.06l7.33-11.22H236l7.33,11.22H422.19ZM244,431.45l-7.33-11.23h-72.9l-7.33,11.23H12.26L1.54,415V323.87L9.88,311.1V122L1.54,109.27V18.78L12.26,2.36H156.42l7.33,11.23h72.9L244,2.36H421.55l10.72,16.42V151l-7.33,11.22v31l7.33,11.23v99.77l-8.34,12.77v25.79l8.34,12.76V415l-10.72,16.42ZM237.83,2.36V0H163.75V2.36ZM163.75,431.45v2.36h74.08v-2.36Z"/></g></g></svg>